# Blender v2.69 (sub 0) OBJ File: ''
# www.blender.org
v -2.222666 -1.000000 -4.366192
v -4.222666 -1.000000 -4.366192
v -2.222666 1.000000 -4.366192
v -4.222666 1.000000 -4.366192
v -7.020740 -1.000000 -15.005400
v -9.020741 -1.000000 -15.005400
v -7.020740 1.000000 -15.005400
v -9.020741 1.000000 -15.005400
v -2.222665 -1.000000 -4.366192
v -4.222665 -1.000000 -4.366192
v -2.222665 1.000000 -4.366192
v -4.222665 1.000000 -4.366192
v -1.183096 -1.000000 -2.099931
v -3.183096 -1.000000 -2.099931
v -1.183096 1.000000 -2.099931
v -3.183096 1.000000 -2.099931
v 7.195834 -1.000000 -4.989933
v 5.195834 -1.000000 -4.989933
v 7.195834 1.000000 -4.989933
v 5.195834 1.000000 -4.989933
v 4.721659 -1.000000 -2.682089
v 2.721658 -1.000000 -2.682089
v 4.721659 1.000000 -2.682089
v 2.721658 1.000000 -2.682089
v 3.058347 -1.000000 -0.935612
v 1.058347 -1.000000 -0.935612
v 3.058347 1.000000 -0.935612
v 1.058347 1.000000 -0.935612
v 1.000000 -1.000000 0.000000
v -1.000000 -1.000000 0.000000
v 1.000000 1.000000 -0.000000
v -1.000000 1.000000 -0.000000
v 1.000000 -1.000000 0.000000
v -1.000000 -1.000000 0.000000
v 1.000000 1.000000 -0.000000
v -1.000000 1.000000 -0.000000
vt 0.000100 0.000100
vt 0.999900 0.000100
vt 0.000100 0.999900
vt 0.666900 0.666900
vt 0.999767 0.666900
vt 0.666900 0.999767
vt 0.000233 0.333566
vt 0.333100 0.333566
vt 0.000233 0.666434
vt 0.000233 0.000233
vt 0.333100 0.000233
vt 0.000233 0.333100
vt 0.666900 0.000233
vt 0.999767 0.000233
vt 0.666900 0.333100
vt 0.333566 0.999767
vt 0.333566 0.666900
vt 0.666434 0.999767
vt 0.333566 0.333100
vt 0.333566 0.000233
vt 0.666434 0.333100
vt 0.333566 0.666434
vt 0.333566 0.333566
vt 0.666434 0.666434
vt 0.999900 0.999900
vt 0.999767 0.999767
vt 0.333100 0.666434
vt 0.333100 0.333100
vt 0.999767 0.333100
vt 0.666434 0.666900
vt 0.666434 0.000233
vt 0.666434 0.333566
vn 0.000000 0.000000 1.000000
s off
f 2/1/1 1/2/1 4/3/1
f 6/4/1 5/5/1 8/6/1
f 10/7/1 9/8/1 12/9/1
f 14/10/1 13/11/1 16/12/1
f 18/13/1 17/14/1 20/15/1
f 22/16/1 21/17/1 24/18/1
f 26/19/1 25/20/1 28/21/1
f 30/22/1 29/23/1 32/24/1
f 34/1/1 33/2/1 36/3/1
f 1/2/1 3/25/1 4/3/1
f 5/5/1 7/26/1 8/6/1
f 9/8/1 11/27/1 12/9/1
f 13/11/1 15/28/1 16/12/1
f 17/14/1 19/29/1 20/15/1
f 21/17/1 23/30/1 24/18/1
f 25/20/1 27/31/1 28/21/1
f 29/23/1 31/32/1 32/24/1
f 33/2/1 35/25/1 36/3/1
